# xmcd
#
# Track frame offsets: 
#        150
#        9400
#        23550
#        36285
#        47312
#        69500
#        80825
#        94175
#        102650
#        117200
#        136487
#        159875
#        185750
#        202400
#        213037
#
# Disc length: 3215 seconds
#
# Revision: 0
# Processed by: cddbd v1.5.2PL0 Copyright (c) Steve Scherf et al.
# Submitted via: ExactAudioCopy v0.99pb5
#
DISCID=cb0c8d0f
DTITLE=Bullcrap Company - T for Texas
DYEAR=1993
DGENRE=Country
TTITLE0=Uncle Ben
TTITLE1=T for Texas
TTITLE2=I wanna be the one
TTITLE3=Nashville
TTITLE4=Country Comfort
TTITLE5=I'm gonna Had Love
TTITLE6=Dixie
TTITLE7=Blue Moon of Kentucky
TTITLE8=Will the Circle be unbroken
TTITLE9=Seven Spanish Angels
TTITLE10=Orange Blossom
TTITLE11=Me and Bobby Mc Gee
TTITLE12=Sweet Georgia Brown
TTITLE13=Rocky Top
TTITLE14=Sunday Morning
EXTD=
EXTT0=
EXTT1=
EXTT2=
EXTT3=
EXTT4=
EXTT5=
EXTT6=
EXTT7=
EXTT8=
EXTT9=
EXTT10=
EXTT11=
EXTT12=
EXTT13=
EXTT14=
PLAYORDER=
